<svg xmlns="http://www.w3.org/2000/svg" width="548.835" height="497.001" viewBox="0 0 548.835 497.001"><defs><clipPath id="clip-path"><path id="Path_6" d="M547.928 291.086c8.61 6.528 21.432 6.026 29.986-1.174a30.044 30.044 0 0 0 9.974-18.184c1.4-9-1.378-18.567-7.481-24.661a22.87 22.87 0 0 0-23.554-5.484c-19.244 6.888-25.393 37.017-8.925 49.503z" class="cls-1" transform="translate(-538.413 -240.334)"/></clipPath><clipPath id="clip-path-2"><path id="Path_8" d="M555.31 290.733c-.319 8.652 5.913 16.832 14.573 19.129a24.068 24.068 0 0 0 16.516-1.828c6.546-3.223 11.544-9.449 12.731-16.256a18.328 18.328 0 0 0-7.244-17.974c-13.374-9.452-35.966.382-36.576 16.929z" class="cls-1" transform="translate(-555.298 -270.118)"/></clipPath><clipPath id="clip-path-3"><path id="Rectangle_11" d="M0 0h144.222v102.447H0z" class="cls-1"/></clipPath><clipPath id="clip-path-4"><path id="Path_45" d="M666.083 361.439 521.6 311.15s-17.263 61.208-48.515 81.42a40.5 40.5 0 0 1-11.473 5.231 33.2 33.2 0 0 1-8.687 1.164c-43.909 0-90.067-123.466-90.067-123.466l52.913-32.274 32.649 51.037s16.887-31.148 27.019-40.155 39.029-8.256 39.029-8.256c8.631 32.274 57.417-1.5 57.417-1.5s36.076-2.626 47.661 1.876c13.513 5.254 59.484 81.406 46.537 115.212z" class="cls-1" transform="translate(-362.859 -243.225)"/></clipPath><clipPath id="clip-path-5"><path id="Path_55" d="M349.612 345.132c6.807 9.782 17.976 17.72 28.414 22l.154.106c11.716-9.942 16.289-27.479 10.911-41.877-3.658-9.8-11.223-17.692-15.348-27.3-3.6-8.389-4.408-17.661-6.272-26.6a83.028 83.028 0 0 0-.981-4.179c-.152.05-.306.1-.468.142a5.765 5.765 0 0 1-3.631-10.925 28.62 28.62 0 0 0-7.179-8.91c-5.639-4.55-14.644-6.036-19.848-.991-4.166 4.039-4.445 10.64-3.379 16.341 2.54 13.6 11.006 25.767 12.181 39.557.7 8.256-1.279 16.526-1.016 24.8a28.073 28.073 0 0 0 1.293 7.511 4.859 4.859 0 0 1 .67-.256c6.731-2.031 10.009 7.682 4.499 10.581z" class="cls-1" transform="translate(-331.458 -243.44)"/></clipPath><style>.cls-1{fill:none}.cls-2{opacity:.2}.cls-3{fill:#df3744}.cls-8{fill:#fff}.cls-9{fill:#ba1e2a}.cls-11{fill:#b2614e}.cls-13{opacity:.5}</style></defs><g id="Group_96" transform="translate(-306 -123.345)"><g id="Group_8" transform="translate(306 123.345)"><g id="Group_5" class="cls-2" transform="translate(0 145.33)"><g id="Group_4"><path id="Path_3" d="M389.286 234.055c-25.317 17.488-45.987 40.376-59.819 66.031-24.955 46.283-39.522 116.517 6.39 157.174 52.532 46.518 129.015 16.78 191.687 33.9 39.918 10.9 70.9 39.233 110 52.234 57.427 19.094 128.334-1.264 161.766-46.187 30.019-40.332 29.071-94.59 6-138.437s-65.668-78.074-113.094-102.75c-60.177-31.312-130.118-60.727-201.9-56.783a197 197 0 0 0-101.03 34.818z" class="cls-3" transform="translate(-306 -198.879)"/></g></g><g id="Group_7" class="cls-2" transform="translate(30.27)"><g id="Group_6"><path id="Path_4" d="M682.612 496.931c43.857 18.311 97.778 23.514 130.55-11.985s34.775-87.41 11.843-128.386c-21.663-38.71-59.819-65.458-82.605-103.52-12.968-21.663-18.542-47.1-31.221-68.929-24.968-42.993-78.661-66.9-124.057-59.4-43.056 7.107-76.056 46-111.029 78.322-18.327 16.937-45.379 27.6-68.1 39.989-24.664 13.449-47.568 27.591-64.2 51.289-32.08 45.7-25.932 81.816-2.2 116.419s84.968 46.125 132.729 35.453c76.993-17.209 136.996 20.981 208.29 50.748z" class="cls-3" transform="translate(-321.733 -123.345)"/></g></g></g><g id="Group_95" transform="translate(350.788 184.55)"><g id="Group_25" transform="translate(369.042 163.887)"><g id="Group_15" transform="translate(33.343)"><g id="Group_9"><path id="Path_5" d="M547.928 291.086c8.61 6.528 21.432 6.026 29.986-1.174a30.044 30.044 0 0 0 9.974-18.184c1.4-9-1.378-18.567-7.481-24.661a22.87 22.87 0 0 0-23.554-5.484c-19.244 6.888-25.393 37.017-8.925 49.503z" class="cls-3" transform="translate(-538.413 -240.334)"/></g><g id="Group_14"><g id="Group_13" clip-path="url(#clip-path)"><g id="Group_12" transform="translate(3.142 .103)"><g id="Group_10"><path id="Rectangle_4" d="M0 0h2.405v39.238H0z" transform="rotate(-22.142 2.315 .453)"/></g><g id="Group_11" transform="translate(18.667 9.67)"><path id="Rectangle_5" d="M0 0h47.042v2.405H0z" transform="rotate(-23.189 45.143 9.262)"/></g></g></g></g></g><g id="Group_16" transform="translate(0 1.329)"><path id="Rectangle_6" d="M0 0h172.666v2.405H0z" transform="rotate(-67.48 119.397 79.727)"/></g><g id="Group_24" transform="translate(25.715 57.305)"><g id="Group_17" transform="translate(40.116)"><path id="Path_7" d="M555.31 290.73c-.319 8.652 5.911 16.832 14.571 19.131a24.068 24.068 0 0 0 16.516-1.828c6.546-3.221 11.544-9.447 12.731-16.254a18.324 18.324 0 0 0-7.24-17.974c-13.374-9.453-35.968.379-36.578 16.925z" class="cls-3" transform="translate(-555.298 -270.118)"/></g><g id="Group_22" transform="translate(40.116)"><g id="Group_21" clip-path="url(#clip-path-2)"><g id="Group_20" transform="translate(6.228 -3.398)"><g id="Group_18" transform="translate(9.445 24.799)"><path id="Rectangle_7" d="M0 0h2.405v31.703H0z" transform="matrix(.4 -.916 .916 .4 0 2.204)"/></g><g id="Group_19"><path id="Rectangle_8" d="M0 0h2.405v29.625H0z" transform="rotate(-.543 2.427 .012)"/></g></g></g></g><g id="Group_23" transform="translate(0 10.574)"><path id="Rectangle_9" d="M0 0h88.622v2.405H0z" transform="rotate(-21.904 85.424 16.53)"/></g></g></g><g id="Group_26" transform="translate(238.003 92.967)"><path id="Rectangle_10" fill="#f89fa6" d="M0 0h144.222v102.447H0z"/></g><g id="Group_29" transform="translate(238.003 92.967)"><g id="Group_28" clip-path="url(#clip-path-3)"><g id="Group_27" transform="translate(-10.967 42.101)"><path id="Path_9" d="M525.867 379.313a20.726 20.726 0 0 1-5.289-.689c-7.679-2.016-14.155-8.808-16.9-17.724-2.667-8.658-1.7-17.74-.568-24.686a133.308 133.308 0 0 1 67.967-95.756 24.471 24.471 0 0 0-8.974-8.214c-9.412-4.837-21.75-3.032-36.665 5.364a152.208 152.208 0 0 0-75.759 119.67l-2.4-.169a154.614 154.614 0 0 1 76.977-121.6c15.666-8.818 28.77-10.638 38.945-5.407a26.888 26.888 0 0 1 10.082 9.176 134.038 134.038 0 0 1 43.549-13.926l.329 2.382a131.627 131.627 0 0 0-42.61 13.6c3.469 6.08 6.042 14.821 6.361 27.383a158.074 158.074 0 0 1-25.257 89.322c-3.109 4.779-8.233 11.456-14.986 16.118-4.976 3.432-9.934 5.156-14.802 5.156zM572.35 242.5a130.931 130.931 0 0 0-66.87 94.1c-1.093 6.686-2.024 15.408.494 23.589 2.5 8.127 8.335 14.3 15.215 16.106 15.631 4.1 28.786-13.942 32.447-19.571a155.64 155.64 0 0 0 24.87-87.95c-.306-12.274-2.906-20.616-6.156-26.274z" class="cls-8" transform="translate(-447.277 -225.356)"/></g></g></g><g id="Group_30" transform="translate(238.003 93.465)"><path id="Path_8296" d="M0 0h144.222v19.893H0z" class="cls-3"/></g><g id="Group_31" transform="translate(261.819 215.234)"><path id="Path_10" d="M648.365 376.977s-20.212-109.956-91.292-109.956-91.717 109.956-91.717 109.956" class="cls-9" transform="translate(-465.355 -267.021)"/></g><g id="Group_80" transform="translate(61.868)"><g id="Group_32" transform="translate(5.37 146.033)"><path id="Path_11" fill="#9b4a3a" d="M408.506 231.2c-4.8-1.37-7.648 7-9.145 13.753l-8.118-11.125-27.019 18.013 8.364 28.2 36.243-22.105s8.805-24.124-.325-26.736z" transform="translate(-364.224 -231.055)"/></g><g id="Group_33" transform="translate(112.7 200.597)"><path id="Path_12" d="M565.427 259.414v58.168l-18.771 20.727-41.389 45.7h-85.26l3.438-79.559z" class="cls-3" transform="translate(-420.007 -259.414)"/></g><g id="Group_34" transform="translate(147.92 104.257)"><path id="Path_13" d="m501.987 275.51-5.774 22.86-57.9-3.627 6.922-17.73 4.886-41.536 40.045-26.135z" class="cls-11" transform="translate(-438.312 -209.342)"/></g><g id="Group_35" transform="translate(156.528 123.803)"><path id="Path_14" d="M469.282 225.947a48.913 48.913 0 0 1-26.5 27.347l3.055-25.948 11.943-7.844c3.86 2.154 7.564 4.278 11.502 6.445z" transform="translate(-442.786 -219.501)"/></g><g id="Group_36" transform="translate(125.065 34.348)"><path id="Path_15" d="m506.413 222.233-.933 2.453-17.411 46.068s-23.517 24.246-47.783 2.953c-13.461-11.842-17.33-43.249-10.646-67.865.217-.787.437-1.557.67-2.324l.1-.344c.044-.152.092-.312.144-.468.025-.073.046-.154.073-.231.287-.887.589-1.77.914-2.636.214-.627.441-1.229.691-1.83.3-.787.635-1.564.97-2.326 3.556-8.1 8.541-14.777 15.015-18.733a26.065 26.065 0 0 1 4.635-2.27 23.136 23.136 0 0 1 2.288-.737 25.085 25.085 0 0 1 1.9-.444 27.787 27.787 0 0 1 5.253-.491c.167.006.337 0 .51.008 15.535.11 25.528 6.419 31.964 14.455 8.133 10.14 10.578 23.066 11.319 29.952.025.25.054.485.075.72l.031.339.048.673c.046.635.083 1.189.11 1.643.042.627.052 1.068.06 1.281.005.102.003.154.003.154z" class="cls-11" transform="translate(-426.434 -173.008)"/></g><g id="Group_37" transform="translate(145.275 85.064)"><path id="Path_16" d="M442.158 223.468a5.221 5.221 0 0 1-5.2-5.634l1.46-18.467 2.4.189-1.46 18.469a2.815 2.815 0 0 0 2.807 3.038v2.405z" transform="translate(-436.938 -199.367)"/></g><g id="Group_38" transform="translate(161.732 84.389)"><path id="Path_17" d="M445.491 201.554c0 1.4.812 2.54 1.813 2.538s1.814-1.137 1.812-2.538-.812-2.538-1.812-2.538-1.815 1.137-1.813 2.538z" transform="translate(-445.491 -199.016)"/></g><g id="Group_39" transform="translate(134.174 84.399)"><path id="Path_18" d="M431.168 201.559c0 1.4.812 2.538 1.812 2.538s1.813-1.137 1.813-2.538-.812-2.538-1.814-2.538-1.813 1.137-1.811 2.538z" transform="translate(-431.168 -199.021)"/></g><g id="Group_40" transform="translate(157.329 74.284)"><path id="Path_19" d="M453.851 194.539a7.582 7.582 0 0 1 2.19.845c.623.4 1.058.977.954 1.51-.175.881-1.63 1.247-2.924 1.351a23.29 23.29 0 0 1-8.46-.908c-.962-.289-2-.722-2.3-1.4-.7-1.58 2.226-2.066 3.419-2.138a23.754 23.754 0 0 1 7.121.74z" transform="translate(-443.202 -193.764)"/></g><g id="Group_41" transform="translate(129.888 74.218)"><path id="Path_20" d="M438.069 193.817a6.163 6.163 0 0 1 1.989.439c.583.267 1.026.725.993 1.224-.054.823-1.274 1.372-2.384 1.66a19.517 19.517 0 0 1-7.429.443c-.866-.117-1.812-.354-2.149-.925-.779-1.326 1.7-2.2 2.726-2.445a19.908 19.908 0 0 1 6.254-.396z" transform="translate(-428.941 -193.73)"/></g><g id="Group_42" transform="translate(2.74 169.449)"><path id="Path_21" d="M666.083 361.439 521.6 311.15s-17.263 61.208-48.515 81.42a40.575 40.575 0 0 1-11.471 5.233 33.293 33.293 0 0 1-8.687 1.164c-31.125 0-63.394-62.06-79.536-98.18-6.623-14.829-10.534-25.286-10.534-25.286l52.917-32.276 11.567 18.086 21.084 32.955s16.889-31.15 27.018-40.157 39.029-8.258 39.029-8.258c8.629 32.276 57.419-1.5 57.419-1.5s36.076-2.626 47.659 1.876c13.511 5.252 59.482 81.406 46.533 115.212z" class="cls-3" transform="translate(-362.857 -243.225)"/></g><g id="Group_43" transform="translate(165.239 217.297)"><path id="Path_22" d="m521.424 330.288-41.389 45.7h-15.507L447.314 313.5l57.793-21.766 7.881-23.643z" class="cls-9" transform="translate(-447.314 -268.093)"/></g><g id="Group_49" transform="translate(132.264 272.78)"><g id="Group_44" transform="translate(8.863)"><path id="Path_23" d="M449.425 310.933c-8.474 2.43-14.005.5-14.629-4.046-.512-3.735 12.549-6.7 24-7.531a140.686 140.686 0 0 0 16.376-2.426" class="cls-11" transform="translate(-434.781 -296.93)"/></g><g id="Group_48"><g id="Group_45"><path id="Path_24" d="m479.427 296.93 15.163 41.81s-47.709 9.507-52 5.068c-2.57-2.659-.5-4.708-.5-4.708s-4.714 1.545-6.794-.558a3.945 3.945 0 0 1-.5-4.708s-4.264.739-4.614-3.229c-.385-4.335 11.375-12.479 23.5-19.672" class="cls-11" transform="translate(-430.175 -296.93)"/></g><g id="Group_46" transform="translate(3.811 24.911)"><path id="Path_25" d="m433.778 322.758-1.622-1.776a71.114 71.114 0 0 1 17.634-11.106l.975 2.2a69.834 69.834 0 0 0-16.987 10.682z" transform="translate(-432.156 -309.877)"/></g><g id="Group_47" transform="translate(11.273 33.29)"><path id="Path_26" d="m437.323 324.125-1.289-2.03a115.985 115.985 0 0 1 14.856-7.864l.937 2.216a115.867 115.867 0 0 0-14.504 7.678z" transform="translate(-436.034 -314.232)"/></g></g></g><g id="Group_50" transform="translate(150.402)"><path id="Path_27" d="M452.416 155.52a16.66 16.66 0 1 1-2.418 31.8c-15.05-5.829-13.34-28.312 2.418-31.8z" transform="translate(-439.602 -155.156)"/></g><g id="Group_51" transform="translate(176.122 217.108)"><path id="Path_28" d="M582.815 338.55c-8.912 24.089-53.085 32.718-83.577 35.807-17 1.722-29.755 1.722-29.755 1.722l-16.513-59.294 22.142-8.039 32.651-11.852v-28.9z" class="cls-3" transform="translate(-452.97 -267.995)"/></g><g id="Group_52" transform="translate(101.498 245.63)"><path id="Path_29" d="m428.765 282.819-3.107 73.164a40.5 40.5 0 0 1-11.473 5.231z" class="cls-9" transform="translate(-414.185 -282.819)"/></g><g id="Group_59" transform="translate(0 50.724)"><g id="Group_53" transform="translate(8.59)"><circle id="Ellipse_1" cx="40.53" cy="40.53" r="40.53" class="cls-3" transform="rotate(-33.487 74.333 22.363)"/></g><g id="Group_54" transform="translate(0 63.992)"><path id="Path_30" d="M365.008 284.938a9.333 9.333 0 0 1-1.324-13.424l48.686-56.736 9.453 7.408-43.462 60.833a9.334 9.334 0 0 1-13.353 1.919z" class="cls-3" transform="translate(-361.433 -214.778)"/></g><g id="Group_55" transform="translate(34.356 25.765)"><path id="Path_31" fill="#e0e2ff" d="M433.613 244.06a30.388 30.388 0 1 1-12.664-46.995 30.623 30.623 0 0 1 6.9 3.871c.2.148.391.3.587.45a30.367 30.367 0 0 1 5.174 42.673z" transform="translate(-379.289 -194.91)"/></g><g id="Group_56" class="cls-13" transform="translate(38.631 27.92)"><path id="Path_32" d="m425.8 199.9-14.677 54.568a30.415 30.415 0 0 1-29.611-14.642l37.384-43.8a30.623 30.623 0 0 1 6.904 3.874z" class="cls-3" transform="translate(-381.511 -196.03)"/></g><g id="Group_57" class="cls-13" transform="translate(82.792 35.298)"><path id="Path_33" d="M410.351 239.481a30.3 30.3 0 0 1-5.888 5.722l4.071-45.338a30.4 30.4 0 0 1 1.817 39.616z" class="cls-3" transform="translate(-404.463 -199.865)"/></g><g id="Group_58" class="cls-13" transform="translate(34.999 25.765)"><path id="Path_34" d="m412.028 195.024-32.4 24.051a30.429 30.429 0 0 1 32.4-24.051z" class="cls-3" transform="translate(-379.623 -194.91)"/></g></g><g id="Group_63" transform="translate(4.793 141.686)"><g id="Group_60"><path id="Path_35" d="M395.269 257.448s1.822 2.2-.945 4.55c-2.707 2.3-26.837-2.3-29.761-6.476-4.1-5.874 12.52-27.285 22.123-26.715 7.633.452 21.842 17.307 21.043 21.5-.729 3.838-4.82 2.7-4.82 2.7a3.873 3.873 0 0 1-.947 4.55c-2.237 1.863-6.693-.109-6.693-.109z" class="cls-11" transform="translate(-363.924 -228.795)"/></g><g id="Group_61" transform="translate(22.539 10.849)"><path id="Path_36" d="M391.188 248.608a68.7 68.7 0 0 0-15.55-12.083l1.189-2.091A69.752 69.752 0 0 1 392.978 247z" transform="translate(-375.638 -234.434)"/></g><g id="Group_62" transform="translate(17.186 18.58)"><path id="Path_37" d="M386.272 249.471a113.4 113.4 0 0 0-13.416-8.906l1.151-2.113a113.875 113.875 0 0 1 13.751 9.128z" transform="translate(-372.856 -238.452)"/></g></g><g id="Group_68" transform="translate(121.067 75.528)"><g id="Group_64" transform="translate(0 5.842)"><path id="Path_38" d="M436.63 221.994a12.274 12.274 0 1 1 12.27-12.273 12.288 12.288 0 0 1-12.27 12.273zm0-22.142a9.868 9.868 0 1 0 9.867 9.868 9.88 9.88 0 0 0-9.867-9.868z" class="cls-3" transform="translate(-424.356 -197.447)"/></g><g id="Group_65" transform="translate(27.77 5.842)"><path id="Path_39" d="M451.063 221.994a12.274 12.274 0 1 1 12.273-12.273 12.288 12.288 0 0 1-12.273 12.273zm0-22.142a9.868 9.868 0 1 0 9.868 9.868 9.88 9.88 0 0 0-9.868-9.868z" class="cls-3" transform="translate(-438.789 -197.447)"/></g><g id="Group_66" transform="translate(23.344 16.725)"><path id="Rectangle_13" d="M0 0h5.629v2.405H0z" class="cls-3"/></g><g id="Group_67" transform="translate(50.513)"><path id="Rectangle_14" d="M0 0h33.794v2.405H0z" class="cls-3" transform="rotate(-29.976 31.534 8.443)"/></g></g><g id="Group_69" transform="translate(129.189 34.348)"><path id="Path_40" d="M504.111 217.423a47.739 47.739 0 0 1-47.926-35.814 54.433 54.433 0 0 1-27.608 21.1c.025-.073.046-.154.073-.231.287-.887.589-1.77.914-2.636.214-.627.441-1.229.691-1.83.3-.787.635-1.564.97-2.326 3.556-8.1 8.541-14.777 15.015-18.733a26.065 26.065 0 0 1 4.635-2.27 23.136 23.136 0 0 1 2.288-.737 25.085 25.085 0 0 1 1.9-.444 27.787 27.787 0 0 1 5.253-.491c.167.006.337 0 .51.008 15.535.11 25.528 6.419 31.964 14.455 8.135 10.137 10.581 23.063 11.321 29.949z" transform="translate(-428.577 -173.008)"/></g><g id="Group_70" transform="translate(193.233 77.9)"><path id="Path_41" d="M463.7 199.683a9.2 9.2 0 0 1 8.387-4.017 13.015 13.015 0 0 1 8.479 4.368A16.339 16.339 0 0 1 461.863 226" class="cls-11" transform="translate(-461.863 -195.644)"/></g><g id="Group_71" transform="translate(199.218 86.525)"><path id="Path_42" d="m471.27 213.1-2.4-.173a14.282 14.282 0 0 0-3.9-10.763l.895-2.036 7.256.177-.06 2.405-4.656-.115a16.756 16.756 0 0 1 2.865 10.505z" transform="translate(-464.974 -200.126)"/></g><g id="Group_72" transform="translate(151.26 109.038)"><path id="Path_43" d="m440.206 218.35-.158-2.4a6.844 6.844 0 0 0 3.833-1.181 4.016 4.016 0 0 0 1.524-2.94l2.4.112a6.454 6.454 0 0 1-2.445 4.725 9.14 9.14 0 0 1-5.154 1.684z" transform="translate(-440.048 -211.827)"/></g><g id="Group_75" transform="translate(2.744 169.449)"><g id="Group_74" clip-path="url(#clip-path-4)"><g id="Group_73" transform="translate(139.054 -7.444)"><path id="Path_44" d="M469.376 279.875a37.675 37.675 0 0 1-22.382-6.911c-9.2-6.83-13.77-18.69-11.113-28.842l2.326.608c-2.413 9.228 1.789 20.043 10.221 26.3 7.64 5.672 18.559 7.769 29.211 5.6 9.207-1.87 18.332-6.661 27.127-14.242 7.627-6.576 14.046-14.325 21.051-23.039l1.874 1.508c-7.081 8.806-13.574 16.643-21.355 23.352-9.11 7.852-18.6 12.824-28.218 14.777a43.9 43.9 0 0 1-8.742.889z" transform="translate(-435.13 -239.356)"/></g></g></g><g id="Group_76" transform="translate(2.74 169.449)"><path id="Path_46" d="m427.342 261.311-53.95 39.476c-6.623-14.829-10.534-25.286-10.534-25.286l52.917-32.276z" class="cls-8" transform="translate(-362.857 -243.225)"/></g><g id="Group_77" transform="translate(176.122 257.859)"><path id="Path_47" d="M499.238 354.785c-17 1.722-29.755 1.722-29.755 1.722l-16.513-59.293 22.142-8.039z" class="cls-8" transform="translate(-452.97 -289.175)"/></g><g id="Group_78" transform="translate(13.117 203.649)"><path id="Path_48" d="M373.3 271.1a5.051 5.051 0 1 1 5.051-5.051 5.056 5.056 0 0 1-5.051 5.051zm0-7.7a2.646 2.646 0 1 0 2.646 2.646 2.649 2.649 0 0 0-2.646-2.641z" transform="translate(-368.25 -261)"/></g><g id="Group_79" transform="translate(197.344 304.662)"><path id="Path_49" d="M469.051 323.6a5.051 5.051 0 1 1 5.051-5.051 5.055 5.055 0 0 1-5.051 5.051zm0-7.7a2.646 2.646 0 1 0 2.646 2.646 2.649 2.649 0 0 0-2.646-2.641z" transform="translate(-464 -313.5)"/></g></g><g id="Group_81" transform="translate(0 223.865)"><path id="Path_50" d="M350.035 372.32c-8.487-12.529-15.91-22.808-19.135-37.592s-1.88-31.012 6.163-43.828 23.466-21.39 38.406-18.99c13.182 2.118 24.026 12.127 30.508 23.8s9.287 24.97 12.012 38.04c5.158-11.727 18.14-19.394 30.931-18.648s24.639 9.634 29.323 21.561 2.174 26.267-5.959 36.168" class="cls-9" transform="translate(-329.278 -271.507)"/></g><g id="Group_82" transform="translate(277.683 240.309)"><path id="Path_51" d="M480.751 365.7a31.538 31.538 0 0 1-5.11-31.077 29.565 29.565 0 0 1 25.267-18.567 28.422 28.422 0 0 1 25.122 13.1c2.057-9.722 4.429-19.608 9.364-28.5 6.138-11.052 15.877-18.627 26.057-20.262 12.162-1.955 25.705 4.722 32.928 16.233 6.29 10.021 8.2 23.541 5.247 37.1-2.551 11.7-8.193 20-14.727 29.615l-1.255 1.851-1.991-1.351 1.258-1.853c6.392-9.4 11.912-17.528 14.365-28.776 2.821-12.943 1.024-25.811-4.933-35.3-6.726-10.717-19.273-16.945-30.511-15.137-9.457 1.518-18.554 8.641-24.335 19.054-5.312 9.563-7.592 20.5-9.8 31.079l-2.276.24c-4-9.1-14.244-15.277-24.376-14.684-9.928.579-19.456 7.589-23.169 17.043a29.5 29.5 0 0 0 4.729 28.67z" transform="translate(-473.6 -280.053)"/></g><g id="Group_83" transform="translate(293.727 36.676)"><path id="Path_52" d="M496 201.566a17.5 17.5 0 0 1-1.857-.1 13.663 13.663 0 0 1 1.4-27.248h.071c5.426 0 9.688 2.39 12.006 6.732a14.97 14.97 0 0 1-.777 15.06A12.561 12.561 0 0 1 496 201.566zm-1.6-2.492c4.5.483 8.212-1.083 10.455-4.41a12.506 12.506 0 0 0 .65-12.581c-1.882-3.523-5.391-5.46-9.888-5.46h-.06a11.258 11.258 0 0 0-1.158 22.452z" transform="translate(-481.939 -174.218)"/></g><g id="Group_84" transform="translate(34.724 298.649)"><path id="Path_53" d="m349.314 337.593-1.989-1.353a80.476 80.476 0 0 1 11.781-13.155c9.6-8.614 19.548-13.01 28.791-12.695 12.506.419 23.837 9.139 33.677 25.917l-2.074 1.216c-9.4-16.02-20.054-24.339-31.683-24.728a20.365 20.365 0 0 0-.856-.015c-20.528 0-37.475 24.561-37.647 24.813z" class="cls-8" transform="translate(-347.325 -310.375)"/></g><g id="Group_94" transform="translate(4.194 169.862)"><g id="Group_85"><path id="Path_54" d="M349.612 345.132c6.807 9.782 17.976 17.72 28.414 22l.154.106c11.716-9.942 16.289-27.479 10.911-41.877-3.658-9.8-11.223-17.692-15.348-27.3-3.6-8.389-4.408-17.661-6.272-26.6a83.028 83.028 0 0 0-.981-4.179c-.152.05-.306.1-.468.142a5.765 5.765 0 0 1-3.631-10.925 28.62 28.62 0 0 0-7.179-8.91c-5.639-4.55-14.644-6.036-19.848-.991-4.166 4.039-4.445 10.64-3.379 16.341 2.54 13.6 11.006 25.767 12.181 39.557.7 8.256-1.279 16.526-1.016 24.8a28.073 28.073 0 0 0 1.293 7.511 4.859 4.859 0 0 1 .67-.256c6.731-2.031 10.009 7.682 4.499 10.581z" class="cls-3" transform="translate(-331.458 -243.44)"/></g><g id="Group_86" transform="translate(15.857 27.588)"><path id="Rectangle_15" d="M0 0h2.405v133.38H0z" transform="rotate(-17.25 2.354 .358)"/></g><g id="Group_93"><g id="Group_92" clip-path="url(#clip-path-5)"><g id="Group_89" transform="translate(-.219 38.877)"><g id="Group_87"><path id="Rectangle_16" d="M0 0h2.405v38.374H0z" transform="rotate(-47.23 2.019 .883)"/></g><g id="Group_88" transform="translate(35.688 11.801)"><path id="Rectangle_17" d="M0 0h42.389v2.405H0z" transform="rotate(-70.6 28.244 20)"/></g></g><g id="Group_90" transform="translate(22.593 7.244)"><path id="Rectangle_18" d="M0 0h43.874v2.405H0z" transform="rotate(-75.525 27.42 21.24)"/></g><g id="Group_91" transform="translate(7.232 76.7)"><path id="Rectangle_19" d="M0 0h2.405v38.806H0z" transform="rotate(-54.163 1.907 .975)"/></g></g></g></g></g></g></svg>